<?xml version="1.0" encoding="UTF-8"?>
<!DOCTYPE svg PUBLIC "-//W3C//DTD SVG 1.1//EN" "http://www.w3.org/Graphics/SVG/1.1/DTD/svg11.dtd">
<!-- Creator: CorelDRAW -->
<svg xmlns="http://www.w3.org/2000/svg" xml:space="preserve" width="7mm" height="7mm" version="1.1" style="shape-rendering:geometricPrecision; text-rendering:geometricPrecision; image-rendering:optimizeQuality; fill-rule:evenodd; clip-rule:evenodd"
viewBox="0 0 700 700"
 xmlns:xlink="http://www.w3.org/1999/xlink"
 xmlns:xodm="http://www.corel.com/coreldraw/odm/2003">
 <defs>
  <style type="text/css">
   <![CDATA[
    .fil0 {fill:black;fill-rule:nonzero}
   ]]>
  </style>
 </defs>
 <g id="Camada_x0020_1">
  <metadata id="CorelCorpID_0Corel-Layer"/>
  <path class="fil0" d="M41.99 342.5c0,30.6 1.32,52.45 5.42,72.76 4.12,20.42 11.29,40.7 22.98,68.08 2.36,5.53 6.55,13.33 11.26,21.39 5.38,9.21 11.11,18.14 15.43,24.11 10.16,14.01 22.73,29.02 36.26,42.59 11.79,11.82 24.19,22.51 36.18,30.41l0.09 0 4.17 2.75c16.33,10.78 23.62,15.6 43.12,25.21 15.11,7.44 36.29,15.12 59.18,20.61 19.1,4.58 39.44,7.6 58.42,7.6l1.73 0 0 0.09c17.39,-0.01 30.22,-0.08 42.67,-1.22 11.94,-1.09 24.29,-3.28 41.51,-7.59 10.72,-2.68 19.6,-5.52 27.9,-8.61 8.22,-3.05 17.2,-6.88 27.03,-11.07 3.73,-1.59 7.52,-3.5 11.33,-5.55 4.82,-2.6 8.49,-4.73 11.98,-6.79 35.16,-20.65 65.91,-48.11 90.4,-80.43 24.09,-31.79 42.02,-68.26 51.99,-107.5 2.69,-10.6 4.76,-21.08 6.21,-31.38 1.51,-10.7 2.44,-21.28 2.82,-31.7l-0.06 0 0 -22.56 0.06 0c-1.14,-32.01 -7.24,-63.91 -17.98,-93.98 -10.58,-29.64 -25.52,-57.16 -44.49,-80.88 -1.48,-1.86 -2.95,-3.58 -4.42,-5.31 -2.31,-2.72 -4.62,-5.44 -4.87,-5.74 -9.06,-11.22 -15.88,-17.54 -25.85,-26.78l-0.71 -0.66c-5.64,-5.23 -9.98,-9.17 -14.59,-13.01 -4,-3.33 -8.6,-6.81 -15.31,-11.54 -4.12,-2.91 -7.72,-5.36 -10.99,-7.48 -3.67,-2.37 -7.48,-4.73 -11.6,-7.2 -20.34,-12.18 -44.89,-22.77 -70.5,-30.18 -23.73,-6.87 -48.34,-10.95 -71.26,-10.95 -28.15,0 -52.19,1.63 -74.59,5.96 -22.23,4.3 -43.21,11.25 -65.43,21.92 -9.29,4.46 -20.31,10.48 -31.15,17.1 -9.68,5.92 -18.7,11.99 -25.49,17.43 -11.52,9.2 -20.59,17.22 -29.26,25.9 -8.63,8.65 -16.69,17.83 -26.21,29.41 -2.26,2.76 -4.04,5.31 -5.99,8.09 -4.25,6.08 5.68,-7.95 -1.58,2.35 -5.45,7.72 -10.23,15.09 -14.55,22.41 -4.41,7.48 -8.7,15.51 -13.05,24.34 -7.44,15.11 -15.12,36.29 -20.61,59.18 -4.58,19.1 -7.6,39.44 -7.6,58.42zm163.5 -106.02c0,15.12 13.64,24.5 22.67,33.53 10.98,10.98 79.5,78.24 83.35,83.99 -3.88,5.8 -71.67,72.31 -82.71,83.35 -9.14,9.14 -23.31,18.94 -23.31,34.17 0,12.03 10.5,22.99 24.27,22.99 13.45,0 24.7,-15.13 32.25,-22.67 10.98,-10.98 78.24,-79.5 83.99,-83.35 5.8,3.88 72.31,71.67 83.35,82.71 9.14,9.14 18.94,23.31 34.17,23.31 12.03,0 22.99,-10.5 22.99,-24.27 0,-13.45 -15.13,-24.7 -22.67,-32.25 -10.98,-10.98 -79.5,-78.24 -83.35,-83.99 3.88,-5.8 71.67,-72.31 82.71,-83.35 9.14,-9.14 23.31,-18.94 23.31,-34.17 0,-12.03 -10.5,-22.99 -24.27,-22.99 -13.45,0 -24.7,15.13 -32.25,22.67 -10.98,10.98 -78.24,79.5 -83.99,83.35 -5.8,-3.88 -72.31,-71.67 -83.35,-82.71 -9.14,-9.14 -18.94,-23.31 -34.17,-23.31 -11.97,0 -22.99,11.02 -22.99,22.99zm-202.99 187.77c-4.92,-24.35 -6.5,-48.72 -6.5,-81.75 0,-22.25 3.59,-46.31 9.04,-69.02 6.36,-26.55 15.32,-51.21 24.02,-68.88 4.61,-9.36 9.43,-18.31 14.67,-27.22 5.35,-9.08 10.78,-17.51 16.52,-25.64 8.35,-11.84 -1.64,2.44 1.58,-2.17 2.56,-3.66 4.9,-7.02 8.15,-10.96 10.58,-12.88 19.53,-23.07 29.09,-32.65 9.53,-9.55 19.84,-18.63 33.2,-29.32 8.86,-7.07 19.43,-14.27 30.17,-20.83 11.7,-7.15 24.22,-13.95 35.28,-19.26 26.1,-12.53 50.65,-20.69 76.57,-25.69 25.77,-4.98 52.51,-6.86 83.21,-6.86 26.98,0 56.01,4.82 84.01,12.93 29.41,8.51 57.72,20.73 81.29,34.85 4.56,2.73 8.83,5.38 13.03,8.1 4.61,2.98 8.68,5.72 12.43,8.37 7.03,4.96 12.52,9.16 18.18,13.87 5.05,4.21 9.96,8.68 16.39,14.63l0.7 0.66c11.76,10.89 19.8,18.34 30.53,31.63 2.7,3.35 3.33,4.09 3.98,4.85 1.76,2.07 3.53,4.15 5.32,6.38 22.44,28.07 39.9,60.03 52.03,94 12.31,34.47 19.27,71.38 20.52,108.71l0.09 0.72 0 22.56 -0.09 0.72c-0.43,12.66 -1.49,25.11 -3.21,37.27 -1.76,12.52 -4.13,24.68 -7.11,36.41 -11.49,45.21 -32.14,87.22 -59.89,123.84 -28.02,36.98 -63.36,68.5 -103.87,92.3 -4.86,2.85 -9.63,5.63 -13.42,7.68 -4.8,2.59 -9.79,5.08 -15.1,7.34 -9.68,4.14 -18.59,7.92 -29.01,11.8 -10.36,3.85 -20.9,7.26 -32.75,10.23 -19.21,4.79 -33.69,7.31 -48.51,8.66 -14.3,1.31 -28.14,1.4 -46.81,1.4l0 0.09 -1.73 0c-22.25,0 -46.31,-3.59 -69.02,-9.04 -26.55,-6.36 -51.21,-15.32 -68.88,-24.02 -22.17,-10.92 -30.19,-16.22 -48.16,-28.08l-4.16 -2.75 0.03 -0.04c-14.95,-9.86 -29.78,-22.57 -43.48,-36.3 -15.46,-15.5 -29.63,-32.38 -40.93,-47.98 -5.32,-7.34 -12,-17.68 -17.96,-27.88 -5.35,-9.17 -10.4,-18.72 -13.76,-26.6 -12.81,-30 -20.79,-52.82 -25.68,-77.06z"/>
 </g>
</svg>
